ffmpeg version 3.4.6-0ubuntu0.18.04.1 Copyright (c) 2000-2019 the FFmpeg developers
  built with gcc 7 (Ubuntu 7.3.0-16ubuntu3)
  configuration: --prefix=/usr --extra-version=0ubuntu0.18.04.1 --toolchain=hardened --libdir=/usr/lib/x86_64-linux-gnu --incdir=/usr/include/x86_64-linux-gnu --enable-gpl --disable-stripping --enable-avresample --enable-avisynth --enable-gnutls --enable-ladspa --enable-libass --enable-libbluray --enable-libbs2b --enable-libcaca --enable-libcdio --enable-libflite --enable-libfontconfig --enable-libfreetype --enable-libfribidi --enable-libgme --enable-libgsm --enable-libmp3lame --enable-libmysofa --enable-libopenjpeg --enable-libopenmpt --enable-libopus --enable-libpulse --enable-librubberband --enable-librsvg --enable-libshine --enable-libsnappy --enable-libsoxr --enable-libspeex --enable-libssh --enable-libtheora --enable-libtwolame --enable-libvorbis --enable-libvpx --enable-libwavpack --enable-libwebp --enable-libx265 --enable-libxml2 --enable-libxvid --enable-libzmq --enable-libzvbi --enable-omx --enable-openal --enable-opengl --enable-sdl2 --enable-libdc1394 --enable-libdrm --enable-libiec61883 --enable-chromaprint --enable-frei0r --enable-libopencv --enable-libx264 --enable-shared
  libavutil      55. 78.100 / 55. 78.100
  libavcodec     57.107.100 / 57.107.100
  libavformat    57. 83.100 / 57. 83.100
  libavdevice    57. 10.100 / 57. 10.100
  libavfilter     6.107.100 /  6.107.100
  libavresample   3.  7.  0 /  3.  7.  0
  libswscale      4.  8.100 /  4.  8.100
  libswresample   2.  9.100 /  2.  9.100
  libpostproc    54.  7.100 / 54.  7.100
Input #0, image2pipe, from 'pipe:':
  Duration: N/A, bitrate: N/A
    Stream #0:0: Video: ppm, rgb24, 320x240, 20 fps, 20 tbr, 20 tbn, 20 tbc
Stream mapping:
  Stream #0:0 -> #0:0 (ppm (native) -> h264 (libx264))
[libx264 @ 0x55d088480d20] using cpu capabilities: MMX2 SSE2Fast SSSE3 SSE4.2 AVX FMA3 BMI2 AVX2
[libx264 @ 0x55d088480d20] profile High, level 1.3
[libx264 @ 0x55d088480d20] 264 - core 152 r2854 e9a5903 - H.264/MPEG-4 AVC codec - Copyleft 2003-2017 - http://www.videolan.org/x264.html - options: cabac=1 ref=3 deblock=1:0:0 analyse=0x3:0x113 me=hex subme=7 psy=1 psy_rd=1.00:0.00 mixed_ref=1 me_range=16 chroma_me=1 trellis=1 8x8dct=1 cqm=0 deadzone=21,11 fast_pskip=1 chroma_qp_offset=-2 threads=1 lookahead_threads=1 sliced_threads=0 nr=0 decimate=1 interlaced=0 bluray_compat=0 constrained_intra=0 bframes=3 b_pyramid=2 b_adapt=1 b_bias=0 direct=1 weightb=1 open_gop=0 weightp=2 keyint=250 keyint_min=20 scenecut=40 intra_refresh=0 rc_lookahead=40 rc=abr mbtree=1 bitrate=400 ratetol=1.0 qcomp=0.60 qpmin=0 qpmax=69 qpstep=4 ip_ratio=1.40 aq=1:1.00
Output #0, mp4, to './mission_records/5ae69cba-788e-4205-a4e2-758d10226c8e/video.mp4':
  Metadata:
    encoder         : Lavf57.83.100
    Stream #0:0: Video: h264 (libx264) (avc1 / 0x31637661), yuv420p, 320x240, q=-1--1, 400 kb/s, 20 fps, 10240 tbn, 20 tbc
    Metadata:
      encoder         : Lavc57.107.100 libx264
    Side data:
      cpb: bitrate max/min/avg: 0/0/400000 buffer size: 0 vbv_delay: -1
frame=    4 fps=0.0 q=28.0 Lsize=      10kB time=00:00:00.05 bitrate=1639.3kbits/s speed=0.323x    
video:9kB audio:0kB subtitle:0kB other streams:0kB global headers:0kB muxing overhead: 9.305792%
[libx264 @ 0x55d088480d20] frame I:1     Avg QP:23.38  size:  2428
[libx264 @ 0x55d088480d20] frame P:2     Avg QP:22.50  size:  2376
[libx264 @ 0x55d088480d20] frame B:1     Avg QP:22.88  size:  1508
[libx264 @ 0x55d088480d20] consecutive B-frames: 50.0% 50.0%  0.0%  0.0%
[libx264 @ 0x55d088480d20] mb I  I16..4: 42.0% 52.7%  5.3%
[libx264 @ 0x55d088480d20] mb P  I16..4: 44.2% 32.3%  3.8%  P16..4:  7.7%  4.3%  3.7%  0.0%  0.0%    skip: 4.0%
[libx264 @ 0x55d088480d20] mb B  I16..4:  4.3% 14.0%  0.0%  B16..8: 16.0%  8.7%  6.1%  direct:20.0%  skip:31.0%  L0: 9.2% L1:87.8% BI: 3.0%
[libx264 @ 0x55d088480d20] final ratefactor: 22.46
[libx264 @ 0x55d088480d20] 8x8 transform intra:47.1% inter:66.9%
[libx264 @ 0x55d088480d20] coded y,uvDC,uvAC intra: 32.5% 31.3% 3.5% inter: 33.1% 15.7% 0.3%
[libx264 @ 0x55d088480d20] i16 v,h,dc,p: 32% 43% 14% 11%
[libx264 @ 0x55d088480d20] i8 v,h,dc,ddl,ddr,vr,hd,vl,hu:  9% 15% 48%  4%  4%  2%  9%  2%  7%
[libx264 @ 0x55d088480d20] i4 v,h,dc,ddl,ddr,vr,hd,vl,hu:  3% 44% 32%  3%  4%  3%  8%  1%  3%
[libx264 @ 0x55d088480d20] i8c dc,h,v,p: 57% 36%  1%  7%
[libx264 @ 0x55d088480d20] Weighted P-Frames: Y:0.0% UV:0.0%
[libx264 @ 0x55d088480d20] ref P L0: 86.4%  3.5% 10.1%
[libx264 @ 0x55d088480d20] ref B L0: 58.7% 41.3%
[libx264 @ 0x55d088480d20] kb/s:347.52
